<svg version="1.1" id="Layer_1" xmlns="http://www.w3.org/2000/svg" xmlns:xlink="http://www.w3.org/1999/xlink" x="0px" y="0px"
	 width="1920px" height="1080px" viewBox="0 0 1920 1080" enable-background="new 0 0 1920 1080" xml:space="preserve">
<g>
	<g>
		<defs>
			<rect id="SVGID_1_" y="0.129" width="1919.886" height="1079.871"/>
		</defs>
		<clipPath id="SVGID_2_">
			<use xlink:href="#SVGID_1_"  overflow="visible"/>
		</clipPath>
		<rect y="0.129" clip-path="url(#SVGID_2_)" fill="#EEEEEE" width="1919.886" height="1079.871"/>
		<g clip-path="url(#SVGID_2_)">
			<path fill="#F7D23F" d="M680.3,752.846c-34.122,0-66.293,8.332-94.606,23.058c-5.71-77.161-70.123-137.992-148.748-137.992
				c-50.023,0-94.291,24.626-121.352,62.41c-16.601-33.726-49.893-57.754-89.102-61.301c0.17-2.406,0.263-4.831,0.263-7.276
				c0-55.946-45.354-101.297-101.301-101.297c-13.208,0-25.827,2.53-37.397,7.129c-13.319-23.054-35.513-39.165-60.667-45.221
				c3.083-3.553,5.82-7.498,8.107-11.837c16.054-30.475,4.36-68.191-26.115-84.244c-30.477-16.053-68.197-4.362-84.251,26.113
				c-0.373,0.709-0.716,1.423-1.06,2.14c-23.758-17.741-55.384-24.268-85.875-14.816c-50.608,15.688-78.918,69.425-63.229,120.034
				c2.04,6.582,4.729,12.783,7.967,18.563c-10.948-8.28-24.581-13.196-39.367-13.196c-36.083,0-65.334,29.25-65.334,65.33
				c0,1.883,0.099,3.742,0.254,5.582c-8.059-1.77-16.425-2.709-25.014-2.709c-45.794,0-85.396,26.489-104.338,64.97
				c-28.465-39.744-75.03-65.649-127.649-65.649c-82.707,0-150.462,63.99-156.468,145.156
				c-29.783-15.491-63.624-24.254-99.516-24.254c-119.286,0-215.987,96.693-215.987,215.973
				c0,119.278,96.701,215.975,215.987,215.975c90.432,0,167.869-55.582,200.047-134.438h406.524
				c39.617,47.857,99.476,78.349,166.459,78.349c66.983,0,126.842-30.491,166.459-78.349H346.76v71.324h178.146
				c37.652,43.554,93.303,71.112,155.394,71.112c113.4,0,205.331-91.924,205.331-205.318
				C885.631,844.769,793.701,752.846,680.3,752.846z"/>
			<circle fill="#F7D23F" cx="-306.536" cy="500.56" r="24.031"/>
		</g>
		<g clip-path="url(#SVGID_2_)">
			<path fill="#F7D23F" d="M2896.167,712.85c-34.126,0-66.296,8.333-94.605,23.058c-5.714-77.161-70.124-137.991-148.749-137.991
				c-50.025,0-94.292,24.625-121.354,62.41c-16.598-33.727-49.894-57.752-89.099-61.304c0.166-2.401,0.264-4.825,0.264-7.274
				c0-55.943-45.357-101.295-101.302-101.295c-13.208,0-25.829,2.531-37.398,7.126c-13.317-23.054-35.514-39.162-60.669-45.22
				c3.085-3.551,5.821-7.496,8.107-11.837c16.054-30.475,4.365-68.191-26.115-84.244c-30.475-16.054-68.199-4.363-84.253,26.113
				c-0.371,0.708-0.714,1.426-1.057,2.14c-23.762-17.741-55.385-24.266-85.876-14.816c-50.607,15.688-78.917,69.429-63.229,120.034
				c2.04,6.582,4.726,12.783,7.965,18.563c-10.947-8.281-24.578-13.196-39.364-13.196c-36.085,0-65.337,29.25-65.337,65.33
				c0,1.883,0.098,3.742,0.258,5.581c-8.063-1.765-16.426-2.704-25.019-2.704c-45.792,0-85.396,26.484-104.335,64.969
				c-28.464-39.748-75.031-65.649-127.65-65.649c-82.707,0-150.463,63.987-156.467,145.152
				c-29.783-15.49-63.625-24.254-99.516-24.254c-119.287,0-215.989,96.695-215.989,215.973
				c0,119.279,96.702,215.976,215.989,215.976c90.432,0,521.253,154.732,553.43,75.875l53.139-210.313
				c39.621,47.859,99.479,78.353,166.461,78.353c66.98,0,126.845-30.493,166.46-78.353h241.767v71.325h178.149
				c37.65,43.553,93.303,71.111,155.395,71.111c113.401,0,205.327-91.924,205.327-205.317
				C3101.494,804.773,3009.568,712.85,2896.167,712.85z"/>
			<circle fill="#F7D23F" cx="1204.96" cy="679.557" r="24.033"/>
		</g>
		<ellipse clip-path="url(#SVGID_2_)" fill="#FFFFFF" cx="1708.663" cy="1093.497" rx="215.987" ry="215.976"/>
		<path clip-path="url(#SVGID_2_)" fill="#CBE2F5" d="M-428.713,713.245c42.587-17.761,86.665-26.611,130.159-27.402
			c-43.186-22.585-95.721-26.527-144.216-6.302c-48.497,20.228-82.66,60.326-96.998,106.905
			C-508.601,756.101-471.301,731.006-428.713,713.245z"/>
		<g clip-path="url(#SVGID_2_)">
			<g>
				<path fill="#FFFFFF" d="M1719.317,968.836c-34.148,0-66.313,8.383-94.646,23.128c-5.679-77.188-70.062-138.063-148.707-138.063
					c-50.034,0-94.282,24.66-121.34,62.459c-16.598-33.757-49.905-57.794-89.141-61.335c0.171-2.411,0.288-4.837,0.288-7.291
					c0-55.942-45.354-101.295-101.301-101.295c-13.218,0-25.829,2.557-37.404,7.161c-13.329-23.08-35.533-39.207-60.715-45.254
					c3.092-3.563,5.869-7.484,8.161-11.838c16.055-30.472,4.362-68.191-26.114-84.244s-68.197-4.362-84.25,26.113
					c-0.381,0.723-0.669,1.466-1.018,2.194c-23.766-17.773-55.405-24.329-85.918-14.871
					c-50.609,15.688-78.918,69.429-63.231,120.033c2.044,6.59,4.745,12.794,7.988,18.581c-10.952-8.289-24.592-13.214-39.387-13.214
					c-36.083,0-65.334,29.25-65.334,65.333c0,1.888,0.098,3.753,0.254,5.602c-8.06-1.769-16.424-2.729-25.015-2.729
					c-45.81,0-85.416,26.511-104.35,65.019c-28.463-39.762-75.005-65.698-127.636-65.698c-82.726,0-150.451,64.03-156.427,145.227
					c-29.8-15.51-63.64-24.327-99.559-24.327c-119.286,0-215.985,96.693-215.985,215.974c0,119.277,96.699,215.974,215.985,215.974
					c90.426,0,167.831-55.589,200.012-134.436h406.566c39.617,47.854,99.472,78.351,166.455,78.351
					c66.981,0,126.838-30.496,166.453-78.351h241.774v71.326h178.221c37.651,43.525,93.244,71.108,155.319,71.108
					c113.402,0,205.333-91.925,205.333-205.319C1924.65,1060.761,1832.72,968.836,1719.317,968.836z"/>
				<circle fill="#F7D23F" cx="732.481" cy="716.552" r="24.031"/>
			</g>
			<g>
				<path fill="#FFFFFF" d="M993.736,590.359c-20.519-92.325-17.546-149.022-17.546-149.022l-29.748-2.502l-27.749,3.502
					c0,0,3.229,55.698-17.289,148.022c-20.519,92.326-70.104,143.62-70.104,143.62H944.15h6.84h112.849
					C1063.839,733.979,1014.254,682.686,993.736,590.359z"/>
				<g>
					<g>
						<path fill="#FFD38F" d="M976.132,463.716c-8.854-2.344-18.534-3.625-28.674-3.587c-10.137,0.038-19.798,1.387-28.619,3.793
							c0,0-0.086,29.199,8.773,66.27c11.561,48.38,20.83,66.221,20.83,66.221s9.013-17.907,19.874-66.37
							C976.639,492.912,976.132,463.716,976.132,463.716L976.132,463.716z"/>
						<path fill="#F6851F" d="M929.184,461.66c0.256,8.255,1.587,32.504,8.5,61.437c3.855,16.137,7.456,28.815,10.515,38.499
							c2.904-9.675,6.309-22.36,9.942-38.573c6.496-28.984,7.478-53.242,7.613-61.493c-5.862-0.935-11.991-1.423-18.297-1.4
							C941.153,460.152,935.033,460.684,929.184,461.66z"/>
						<path fill="#FDDD13" d="M939.611,460.43c0.491,10.091,2.2,31.492,8.153,56.406c0.036,0.151,0.072,0.3,0.108,0.451
							c0.033-0.151,0.067-0.303,0.102-0.454c5.589-24.936,6.996-46.112,7.34-56.463c-2.582-0.166-5.202-0.252-7.855-0.24
							C944.809,460.139,942.19,460.244,939.611,460.43z"/>
					</g>
					<g>
						<g>
							<path fill="#00A98D" d="M907.763,426.146c2.666,13.06,6.33,25.988,10.778,38.669c-1.013,0.315-2.013,0.646-3.002,0.989
								c-5.391-11.198-10.212-22.64-14.316-34.283C903.276,429.582,905.46,427.78,907.763,426.146z"/>
							<path fill="#00AC95" d="M883.062,487.297c-0.055,0.065-0.16,0.039-0.176-0.046c-2.068-11.291-0.893-23.177,3.388-33.854
								c3.311-8.261,8.472-15.765,14.948-21.875c4.104,11.643,8.925,23.085,14.316,34.283
								C902.202,470.443,890.923,477.948,883.062,487.297z"/>
						</g>
						
							<linearGradient id="SVGID_3_" gradientUnits="userSpaceOnUse" x1="-148.0342" y1="504.7705" x2="-58.1128" y2="504.7705" gradientTransform="matrix(1 -0.0054 0.0054 1 1047.1206 -144.3169)">
							<stop  offset="0" style="stop-color:#FFFDFA"/>
							<stop  offset="1" style="stop-color:#E4E1DA"/>
						</linearGradient>
						<path fill="url(#SVGID_3_)" d="M976.137,464.317c11.915-33.983,18.225-69.706,14.735-105.097
							c-3.614-36.656-18.156-72.984-44.875-101.669c-26.306,28.875-40.323,65.307-43.407,101.989
							c-2.977,35.414,3.848,71.088,16.253,104.985c8.817-2.796,18.478-4.358,28.615-4.396
							C957.598,460.092,967.278,461.584,976.137,464.317z"/>
						<path fill="#00AC95" d="M976.137,464.317c4.446-12.686,8.11-25.611,10.778-38.673c9.559,6.795,17.125,16.37,21.488,27.253
							c4.279,10.677,5.455,22.563,3.387,33.857c-0.014,0.083-0.12,0.108-0.175,0.046
							C1003.169,476.754,990.783,468.835,976.137,464.317z"/>
						<path fill="#00AC95" d="M976.137,464.317c4.446-12.686,8.11-25.611,10.778-38.673c9.559,6.795,17.125,16.37,21.488,27.253
							c4.279,10.677,5.455,22.563,3.387,33.857c-0.014,0.083-0.12,0.108-0.175,0.046
							C1003.169,476.754,990.783,468.835,976.137,464.317z"/>
						<g>
							<path fill="#00A98D" d="M986.915,425.644c-2.668,13.063-6.332,25.988-10.778,38.673c1.013,0.312,2.012,0.646,3.003,0.991
								c5.389-11.201,10.211-22.643,14.315-34.286C991.399,429.083,989.217,427.283,986.915,425.644z"/>
							<path fill="#00AC95" d="M1011.615,486.8c0.055,0.063,0.161,0.037,0.175-0.046c2.068-11.294,0.893-23.18-3.387-33.857
								c-3.313-8.261-8.474-15.765-14.948-21.875c-4.104,11.643-8.927,23.085-14.315,34.286
								C992.475,469.945,1003.753,477.448,1011.615,486.8z"/>
						</g>
						<path fill="#00AC95" d="M945.997,257.551c-12.092,13.274-21.582,28.15-28.613,43.909l57.857-0.208
							C967.984,285.544,958.28,270.739,945.997,257.551z"/>
						<path fill="#FFFFFF" d="M925.729,459.338c-0.133-0.32-0.299-0.723-0.498-1.197c-0.55-1.416-1.465-3.447-2.417-6.126
							c-0.492-1.334-1.037-2.811-1.63-4.422c-0.565-1.617-1.136-3.376-1.766-5.255c-0.628-1.88-1.215-3.902-1.88-6.025
							c-0.673-2.122-1.223-4.393-1.884-6.744c-0.638-2.356-1.213-4.834-1.858-7.391c-0.571-2.57-1.156-5.229-1.683-7.983
							c-1.074-5.496-2.038-11.337-2.762-17.421c-0.686-6.087-1.193-12.409-1.352-18.858c-0.151-6.447,0.071-13.037,0.621-19.566
							c0.584-6.484,1.366-12.971,2.409-19.307c1.017-6.342,2.304-12.542,3.793-18.484c1.478-5.944,3.244-11.606,5.123-16.898
							c1.877-5.293,3.96-10.189,6.1-14.597c2.113-4.421,4.332-8.332,6.452-11.691c2.102-3.37,4.158-6.158,5.89-8.409
							c1.741-2.246,3.225-3.913,4.239-5.042c0.35-0.377,0.646-0.694,0.881-0.949c0.388-0.417,0.442-0.374,0.12,0.095
							c-0.195,0.288-0.439,0.646-0.729,1.068c-0.862,1.243-2.057,3.113-3.528,5.507c-1.445,2.411-3.111,5.384-4.871,8.863
							c-1.746,3.488-3.535,7.501-5.3,11.949c-1.745,4.459-3.413,9.369-5,14.611c-1.55,5.256-2.943,10.868-4.199,16.716
							c-0.618,2.925-1.201,5.91-1.747,8.94c-0.517,3.037-1.032,6.113-1.48,9.223c-0.888,6.23-1.644,12.574-2.189,18.958
							c-0.564,6.338-0.802,12.671-0.787,18.947c0.052,6.267,0.374,12.445,0.821,18.424c0.52,5.97,1.111,11.745,1.884,17.202
							c0.358,2.733,0.835,5.373,1.202,7.946c0.446,2.557,0.83,5.039,1.286,7.406c0.903,4.74,1.783,9.078,2.624,12.917
							c0.437,1.914,0.864,3.705,1.223,5.371c0.401,1.653,0.77,3.17,1.103,4.544c0.656,2.748,1.246,4.902,1.616,6.375
							c0.125,0.498,0.229,0.92,0.315,1.257C926.012,459.847,925.948,459.867,925.729,459.338z"/>
						<g opacity="0.5">
							<path opacity="0" fill="none" d="M923.72,344.466c0.096,13.311,10.966,24.06,24.28,24.014
								c13.311-0.048,24.027-10.877,23.931-24.188c-0.098-13.311-10.967-24.06-24.28-24.011
								C934.338,320.327,923.624,331.156,923.72,344.466z"/>
							<path opacity="0.0385" fill="#241F20" d="M923.673,344.387c0.096,13.311,10.966,24.06,24.28,24.014
								c13.312-0.048,24.026-10.877,23.931-24.188c-0.098-13.31-10.966-24.059-24.28-24.011
								C934.292,320.247,923.577,331.076,923.673,344.387z"/>
							<path opacity="0.0769" fill="#241F20" d="M923.626,344.306c0.096,13.312,10.966,24.061,24.28,24.015
								c13.311-0.048,24.027-10.877,23.931-24.188c-0.098-13.311-10.966-24.06-24.279-24.011
								C934.244,320.167,923.53,330.996,923.626,344.306z"/>
							<path opacity="0.1154" fill="#241F20" d="M923.58,344.226c0.095,13.312,10.966,24.061,24.279,24.015
								c13.311-0.049,24.027-10.878,23.931-24.188c-0.098-13.311-10.967-24.06-24.28-24.012
								C934.197,320.086,923.483,330.916,923.58,344.226z"/>
							<path opacity="0.1538" fill="#241F20" d="M923.533,344.146c0.096,13.311,10.966,24.06,24.279,24.014
								c13.311-0.048,24.027-10.877,23.931-24.188c-0.098-13.311-10.967-24.06-24.279-24.012
								C934.151,320.007,923.436,330.836,923.533,344.146z"/>
							<path opacity="0.1923" fill="#241F20" d="M923.486,344.066c0.096,13.311,10.966,24.06,24.279,24.014
								c13.312-0.048,24.026-10.877,23.932-24.188c-0.099-13.311-10.967-24.061-24.28-24.012
								C934.104,319.927,923.39,330.756,923.486,344.066z"/>
							<path opacity="0.2308" fill="#241F20" d="M923.439,343.986c0.096,13.311,10.966,24.061,24.279,24.014
								c13.312-0.048,24.026-10.877,23.932-24.188c-0.099-13.311-10.967-24.06-24.28-24.012
								C934.058,319.847,923.343,330.676,923.439,343.986z"/>
							<path opacity="0.2692" fill="#241F20" d="M923.393,343.906c0.095,13.311,10.966,24.06,24.279,24.014
								c13.312-0.049,24.027-10.878,23.931-24.188c-0.098-13.312-10.967-24.061-24.279-24.013
								C934.01,319.767,923.296,330.596,923.393,343.906z"/>
							<path opacity="0.3077" fill="#241F20" d="M923.346,343.825c0.096,13.312,10.966,24.062,24.279,24.015
								c13.312-0.049,24.027-10.877,23.932-24.188c-0.098-13.311-10.967-24.061-24.28-24.012
								C933.964,319.687,923.249,330.516,923.346,343.825z"/>
							<path opacity="0.3462" fill="#241F20" d="M923.299,343.746c0.095,13.311,10.966,24.061,24.279,24.014
								c13.313-0.048,24.027-10.877,23.932-24.187c-0.098-13.311-10.967-24.061-24.28-24.012
								C933.917,319.606,923.203,330.436,923.299,343.746z"/>
							<path opacity="0.3846" fill="#241F20" d="M923.252,343.666c0.096,13.311,10.966,24.061,24.279,24.014
								c13.312-0.049,24.027-10.878,23.932-24.188c-0.098-13.311-10.967-24.061-24.279-24.012
								C933.871,319.527,923.155,330.356,923.252,343.666z"/>
							<path opacity="0.4231" fill="#241F20" d="M923.205,343.585c0.096,13.311,10.966,24.062,24.279,24.014
								c13.312-0.048,24.026-10.877,23.932-24.187c-0.098-13.311-10.967-24.062-24.28-24.013
								C933.823,319.446,923.108,330.275,923.205,343.585z"/>
							<path opacity="0.4615" fill="#241F20" d="M923.159,343.506c0.096,13.311,10.966,24.061,24.279,24.014
								c13.312-0.049,24.027-10.878,23.932-24.188c-0.098-13.311-10.967-24.061-24.279-24.013
								C933.777,319.367,923.062,330.196,923.159,343.506z"/>
							<path opacity="0.5" fill="#241F20" d="M923.112,343.426c0.096,13.311,10.966,24.061,24.279,24.014
								c13.312-0.048,24.027-10.877,23.931-24.187c-0.098-13.312-10.967-24.062-24.279-24.013
								C933.73,319.287,923.016,330.116,923.112,343.426z"/>
							<path opacity="0.5385" fill="#241F20" d="M923.065,343.345c0.095,13.311,10.965,24.061,24.278,24.014
								c13.313-0.048,24.027-10.876,23.932-24.186c-0.098-13.312-10.967-24.062-24.279-24.014
								C933.683,319.207,922.969,330.036,923.065,343.345z"/>
							<path opacity="0.5769" fill="#241F20" d="M923.019,343.265c0.095,13.311,10.965,24.061,24.278,24.014
								c13.313-0.049,24.027-10.877,23.932-24.187c-0.098-13.312-10.967-24.062-24.279-24.014
								C933.637,319.126,922.922,329.956,923.019,343.265z"/>
							<path opacity="0.6154" fill="#241F20" d="M922.972,343.185c0.096,13.311,10.966,24.061,24.278,24.014
								c13.313-0.049,24.027-10.878,23.932-24.187c-0.098-13.311-10.967-24.062-24.279-24.014
								C933.59,319.046,922.875,329.875,922.972,343.185z"/>
							<path opacity="0.6538" fill="#241F20" d="M922.925,343.104c0.096,13.312,10.966,24.062,24.278,24.015
								c13.313-0.049,24.027-10.878,23.932-24.187c-0.098-13.311-10.967-24.062-24.279-24.014S922.828,329.796,922.925,343.104z"/>
							<path opacity="0.6923" fill="#241F20" d="M922.878,343.025c0.096,13.311,10.966,24.061,24.278,24.013
								c13.313-0.048,24.027-10.877,23.932-24.186c-0.098-13.311-10.966-24.062-24.279-24.014
								C933.496,318.887,922.781,329.716,922.878,343.025z"/>
							<path opacity="0.7308" fill="#241F20" d="M922.832,342.945c0.095,13.311,10.965,24.061,24.278,24.014
								c13.313-0.049,24.027-10.878,23.932-24.187c-0.098-13.311-10.966-24.062-24.278-24.014
								C933.449,318.807,922.734,329.636,922.832,342.945z"/>
							<path opacity="0.7692" fill="#241F20" d="M922.785,342.865c0.095,13.311,10.965,24.062,24.278,24.014
								c13.313-0.048,24.026-10.877,23.931-24.186c-0.098-13.312-10.966-24.063-24.278-24.014
								C933.403,318.727,922.688,329.556,922.785,342.865z"/>
							<path opacity="0.8077" fill="#241F20" d="M922.738,342.785c0.096,13.311,10.965,24.062,24.279,24.014
								c13.313-0.048,24.026-10.877,23.931-24.186c-0.097-13.312-10.966-24.062-24.278-24.014
								C933.356,318.646,922.641,329.476,922.738,342.785z"/>
							<path opacity="0.8462" fill="#241F20" d="M922.691,342.705c0.095,13.311,10.965,24.062,24.278,24.014
								c13.313-0.048,24.026-10.877,23.931-24.186c-0.097-13.312-10.966-24.063-24.278-24.014S922.594,329.396,922.691,342.705z"/>
							<path opacity="0.8846" fill="#241F20" d="M922.645,342.624c0.095,13.312,10.965,24.062,24.278,24.014
								c13.313-0.048,24.026-10.877,23.932-24.186c-0.098-13.311-10.967-24.063-24.279-24.014
								C933.263,318.486,922.547,329.315,922.645,342.624z"/>
							<path opacity="0.9231" fill="#241F20" d="M922.598,342.544c0.095,13.311,10.964,24.062,24.278,24.014
								c13.313-0.049,24.026-10.877,23.932-24.186c-0.098-13.312-10.967-24.063-24.279-24.015
								C933.216,318.406,922.5,329.235,922.598,342.544z"/>
							<path opacity="0.9615" fill="#241F20" d="M922.551,342.464c0.096,13.311,10.965,24.062,24.278,24.014
								c13.313-0.048,24.026-10.877,23.932-24.186c-0.098-13.311-10.967-24.063-24.279-24.014S922.454,329.156,922.551,342.464z"/>
							<path fill="#241F20" d="M922.504,342.384c0.095,13.311,10.965,24.062,24.278,24.014
								c13.313-0.048,24.026-10.877,23.932-24.185c-0.098-13.312-10.967-24.063-24.279-24.015
								C933.122,318.247,922.407,329.076,922.504,342.384z"/>
						</g>
						<path fill="#3B474E" d="M922.504,342.384c0.095,13.311,10.965,24.062,24.278,24.014c13.313-0.048,24.026-10.877,23.932-24.185
							c-0.098-13.312-10.967-24.063-24.279-24.015C933.122,318.247,922.407,329.076,922.504,342.384z"/>
						<linearGradient id="SVGID_4_" gradientUnits="userSpaceOnUse" x1="926.7817" y1="342.2979" x2="966.4336" y2="342.2979">
							<stop  offset="0.0449" style="stop-color:#3E5DAA"/>
							<stop  offset="1" style="stop-color:#107BC0"/>
						</linearGradient>
						<path fill="url(#SVGID_4_)" d="M948.779,362.011c-12.514,1.294-23.07-9.146-21.91-21.669
							c0.859-9.272,8.301-16.796,17.564-17.756c12.515-1.3,23.076,9.146,21.913,21.672
							C965.486,353.53,958.042,361.051,948.779,362.011z"/>
						<path fill="#F1F2F2" d="M935.876,353.496c0,0-0.085-0.052-0.246-0.143c-0.153-0.103-0.395-0.22-0.666-0.434
							c-0.286-0.203-0.62-0.46-0.978-0.786c-0.357-0.328-0.748-0.714-1.131-1.18c-0.38-0.465-0.784-0.988-1.137-1.588
							c-0.37-0.592-0.686-1.26-0.978-1.968c-0.27-0.714-0.516-1.474-0.67-2.268c-0.16-0.792-0.261-1.608-0.282-2.428l-0.008-0.309
							l0.007-0.317l0.017-0.572c0.027-0.425,0.067-0.851,0.13-1.242c0.11-0.8,0.303-1.571,0.547-2.296
							c0.475-1.454,1.184-2.7,1.912-3.654c0.353-0.483,0.726-0.888,1.064-1.231c0.34-0.343,0.66-0.617,0.931-0.829
							c0.538-0.431,0.883-0.622,0.883-0.622s-0.179,0.345-0.489,0.945c-0.306,0.597-0.708,1.443-1.103,2.462
							c-0.194,0.512-0.379,1.072-0.551,1.66c-0.17,0.589-0.329,1.211-0.449,1.863c-0.128,0.646-0.214,1.319-0.273,2.002
							c-0.039,0.349-0.034,0.674-0.058,1.005l-0.007,0.563v0.248l0.011,0.263c0.026,1.394,0.236,2.777,0.546,4.063
							c0.172,0.634,0.338,1.26,0.554,1.833c0.203,0.583,0.422,1.128,0.64,1.634c0.236,0.495,0.453,0.954,0.663,1.36
							c0.222,0.403,0.416,0.751,0.576,1.04C935.679,353.159,935.876,353.496,935.876,353.496z"/>
						
							<radialGradient id="circle_shadow_2_" cx="972.5918" cy="198.1587" r="20.0557" gradientTransform="matrix(0.6917 -0.7222 0.7222 0.6917 130.7549 907.6367)" gradientUnits="userSpaceOnUse">
							<stop  offset="0.9354" style="stop-color:#FFFFFF"/>
							<stop  offset="0.9443" style="stop-color:#C4C2C2"/>
							<stop  offset="0.9719" style="stop-color:#52504F"/>
							<stop  offset="0.991" style="stop-color:#1D1D1C"/>
							<stop  offset="1" style="stop-color:#010101"/>
						</radialGradient>
						<path id="circle_shadow_1_" opacity="0.5" fill="url(#circle_shadow_2_)" d="M961.896,329.727
							c-8.057-9.715-22.839-9.661-30.757,0.112c-5.858,7.232-5.782,17.841,0.181,25.031c8.059,9.711,22.839,9.66,30.757-0.111
							C967.936,347.526,967.858,336.917,961.896,329.727z M961.198,354.049c-7.469,9.218-21.409,9.267-29.01,0.106
							c-5.625-6.781-5.697-16.791-0.17-23.608c7.469-9.218,21.409-9.27,29.011-0.106
							C966.653,337.22,966.726,347.229,961.198,354.049z"/>
						<path fill="#00A98D" d="M947.759,487.377c4.092-17.181,3.859-44.606-0.548-61.588c-4.162,17.013-3.999,44.439,0.339,61.588
							C947.578,487.485,947.734,487.482,947.759,487.377z"/>
					</g>
				</g>
			</g>
		</g>
	</g>
</g>
<g display="none">
	<polygon display="inline" fill="#24292E" points="677.712,582.256 657.592,585.558 654.29,605.678 650.986,585.558 
		630.869,582.256 650.986,578.956 654.29,558.834 657.592,578.956 	"/>
	<polygon display="inline" fill="#24292E" points="1373.839,237.001 1362.695,238.831 1360.865,249.974 1359.036,238.831 
		1347.895,237.001 1359.036,235.174 1360.865,224.029 1362.695,235.174 	"/>
	<polygon display="inline" fill="#24292E" points="1712.691,213.753 1692.72,217.031 1689.442,237.002 1686.163,217.031 
		1666.195,213.753 1686.163,210.478 1689.442,190.505 1692.72,210.478 	"/>
	<polygon display="inline" fill="#24292E" points="1038.82,325.276 1027.96,327.058 1026.178,337.918 1024.395,327.058 
		1013.536,325.276 1024.395,323.495 1026.178,312.634 1027.96,323.495 	"/>
	<polygon display="inline" fill="#24292E" points="1194.182,479.45 1180.58,481.682 1178.348,495.284 1176.114,481.682 
		1162.516,479.45 1176.114,477.219 1178.348,463.617 1180.58,477.219 	"/>
	<polygon display="inline" fill="#24292E" points="342.334,490.743 326.979,493.263 324.46,508.618 321.938,493.263 
		306.586,490.743 321.938,488.225 324.46,472.87 326.979,488.225 	"/>
	<polygon display="inline" fill="#24292E" points="505.745,301.004 495.794,302.638 494.161,312.588 492.527,302.638 
		482.578,301.004 492.527,299.373 494.161,289.421 495.794,299.373 	"/>
	<polygon display="inline" fill="#24292E" points="758.164,264.238 742.685,266.779 740.144,282.258 737.602,266.779 
		722.125,264.238 737.602,261.701 740.144,246.22 742.685,261.701 	"/>
	<polygon display="inline" fill="#24292E" points="1586.68,502.037 1567.796,505.137 1564.697,524.019 1561.596,505.137 
		1542.717,502.037 1561.596,498.94 1564.697,480.057 1567.796,498.94 	"/>
	<circle display="inline" fill="#24292E" cx="1360.867" cy="524.019" r="11.292"/>
	<path display="inline" fill="#24292E" d="M847.228,417.525c-6.166,0.932-11.92-3.311-12.852-9.476
		c-0.936-6.167,3.309-11.921,9.475-12.854c6.165-0.933,11.92,3.309,12.854,9.476C857.636,410.836,853.394,416.593,847.228,417.525z"
		/>
	<path display="inline" fill="#24292E" d="M1496.951,354.766c-2.859,0.432-5.523-1.532-5.958-4.392
		c-0.431-2.858,1.537-5.525,4.394-5.957c2.855-0.43,5.522,1.534,5.954,4.392C1501.773,351.667,1499.809,354.334,1496.951,354.766z"
		/>
</g>
</svg>
